<svg width="180" height="180" viewBox="0 0 180 180" fill="none" xmlns="http://www.w3.org/2000/svg">
  <defs>
    <linearGradient id="bg" x1="20" y1="20" x2="160" y2="160" gradientUnits="userSpaceOnUse">
      <stop stop-color="#6366F1" stop-opacity="0.55"/>
      <stop offset="1" stop-color="#FBCFE8" stop-opacity="0.45"/>
    </linearGradient>
    <linearGradient id="moon" x1="60" y1="60" x2="120" y2="120" gradientUnits="userSpaceOnUse">
      <stop stop-color="#FFF7ED"/>
      <stop offset="1" stop-color="#E0E7FF"/>
    </linearGradient>
  </defs>
  <rect x="12" y="12" width="156" height="156" rx="24" fill="url(#bg)" opacity="0.9"/>
  <rect x="20" y="36" width="140" height="108" rx="18" fill="white" fill-opacity="0.9" stroke="#E2E8F0"/>
  <circle cx="110" cy="74" r="24" fill="url(#moon)"/>
  <path d="M102 74c0 12 9 22 20 22 3.1 0 6-0.7 8.6-2-2.6 6.5-9 11-16.6 11-9.8 0-17.8-8.5-17.8-19 0-6.2 3-11.7 7.6-15-1 2.1-1.8 4.8-1.8 7.5Z" fill="#CBD5E1"/>
  <g stroke="#CBD5E1" stroke-linecap="round" stroke-width="3">
    <line x1="40" y1="96" x2="140" y2="96"/>
    <line x1="40" y1="112" x2="120" y2="112"/>
    <line x1="40" y1="128" x2="104" y2="128"/>
  </g>
  <circle cx="52" cy="64" r="6" fill="#6366F1" opacity="0.6"/>
  <circle cx="68" cy="52" r="4" fill="#FBCFE8" opacity="0.7"/>
  <circle cx="46" cy="52" r="3" fill="#A5B4FC" opacity="0.8"/>
</svg>
